<svg width="165" height="51" viewBox="0 0 165 51" fill="none" xmlns="http://www.w3.org/2000/svg">
<g clip-path="url(#clip0_305_165)">
<path d="M10.6271 51C10.2076 51 9.78813 51 9.36864 51C8.52966 51 7.55085 50.8668 6.71187 50.7337C5.87289 50.6005 5.17372 50.3342 4.33473 50.0679C3.63558 49.6684 2.93644 49.2689 2.37711 48.7363C1.81779 48.2036 1.25847 47.5379 0.978809 46.8721C0.559318 46.2063 0.419487 45.4073 0.279657 44.6084C0.139826 43.8094 0 43.0104 0 42.0783C0 41.812 0 40.8799 0 40.8799V10.1201C0 10.1201 0 9.18797 0 8.92165C0 8.12269 0.139826 7.19059 0.279657 6.39163C0.419487 5.59267 0.699148 4.92686 0.978809 4.12791C1.3983 3.46211 1.81779 2.79632 2.37711 2.26368C2.93644 1.73105 3.63558 1.19841 4.33473 0.932091C5.03389 0.532613 5.87289 0.399454 6.71187 0.266294C7.55085 0.133135 8.38983 0 9.36864 0H10.6271H154.373H155.631C156.47 0 157.309 0.133135 158.288 0.266294C159.127 0.399454 159.826 0.665772 160.665 0.932091C162.064 1.59789 163.322 2.79631 164.021 4.12791C164.441 4.7937 164.58 5.59267 164.72 6.25846C164.86 7.05742 165 7.98953 165 8.78848C165 9.18796 165 9.58747 165 9.98695C165 10.5196 165 10.919 165 11.4517V39.282C165 39.8146 165 40.2141 165 40.7467C165 41.1462 165 41.5457 165 41.9452C165 42.7441 164.86 43.5431 164.72 44.4752C164.58 45.2742 164.301 45.9399 164.021 46.7389C163.602 47.4047 163.182 48.0705 162.623 48.6032C162.064 49.1358 161.364 49.6684 160.665 49.9347C159.966 50.3342 159.127 50.6005 158.288 50.6005C157.449 50.7337 156.61 50.8668 155.631 50.8668C155.212 50.8668 154.792 50.8668 154.373 50.8668H152.835L10.6271 51Z" fill="#333333"/>
<path d="M33.5926 26.9125C33.5926 24.575 34.8484 22.375 36.9415 21.1375C35.6856 19.35 33.5926 18.25 31.36 18.1125C28.9879 17.8375 26.7553 19.4875 25.4995 19.4875C24.2437 19.4875 22.4297 18.1125 20.4762 18.1125C17.825 18.25 15.4529 19.625 14.1971 21.825C11.5459 26.3625 13.4994 33.2375 16.1506 36.95C17.4064 38.7375 18.9413 40.8 20.8948 40.8C22.8483 40.6625 23.546 39.5625 25.9181 39.5625C28.2902 39.5625 28.8484 40.8 30.9414 40.8C33.0344 40.8 34.2903 39.0125 35.5461 37.0875C36.5228 35.85 37.2205 34.3375 37.6391 32.825C35.1275 31.8625 33.5926 29.525 33.5926 26.9125Z" fill="white"/>
<path d="M29.6856 15.775C30.8018 14.4 31.36 12.75 31.2205 10.9625C29.546 11.1 27.8716 11.925 26.7553 13.3C25.639 14.5375 25.0809 16.1875 25.2204 17.975C27.0344 17.8375 28.5693 17.15 29.6856 15.775Z" fill="white"/>
<path d="M58.0114 36.2624H51.4532L49.9183 40.9374H47.1276L53.4067 23.8875H56.337L62.6161 40.9374H59.8254L58.0114 36.2624ZM52.1509 34.1999H57.4532L54.9416 26.775H54.802L52.1509 34.1999Z" fill="white"/>
<path d="M76.0116 34.7501C76.0116 38.6001 73.9185 41.0751 70.7092 41.0751C69.0348 41.2126 67.4999 40.2501 66.8022 38.8751V45.0626H64.151V28.5626H66.6627V30.6251C67.4999 29.2501 69.0348 28.4251 70.7092 28.4251C73.779 28.2876 76.0116 30.9001 76.0116 34.7501ZM73.2208 34.7501C73.2208 32.2751 71.965 30.6251 69.872 30.6251C67.9185 30.6251 66.5231 32.2751 66.5231 34.7501C66.5231 37.2251 67.9185 38.8751 69.872 38.8751C71.965 38.8751 73.2208 37.2251 73.2208 34.7501Z" fill="white"/>
<path d="M89.8256 34.7501C89.8256 38.6001 87.7326 41.0751 84.5233 41.0751C82.8488 41.2126 81.3139 40.2501 80.6163 38.8751V45.0626H77.9651V28.5626H80.4767V30.6251C81.3139 29.2501 82.8488 28.4251 84.5233 28.4251C87.7326 28.2876 89.8256 30.9001 89.8256 34.7501ZM87.1744 34.7501C87.1744 32.2751 85.9186 30.6251 83.8256 30.6251C81.8721 30.6251 80.4767 32.2751 80.4767 34.7501C80.4767 37.2251 81.8721 38.8751 83.8256 38.8751C85.9186 38.8751 87.1744 37.2251 87.1744 34.7501Z" fill="white"/>
<path d="M99.035 36.1249C99.1745 37.7749 100.849 38.8749 103.221 38.8749C105.454 38.8749 106.989 37.7749 106.989 36.2624C106.989 34.8874 106.012 34.2 103.779 33.65L101.547 33.1C98.3373 32.275 96.9419 30.8999 96.9419 28.5624C96.9419 25.6749 99.5931 23.6124 103.221 23.6124C106.849 23.6124 109.361 25.6749 109.5 28.5624H106.849C106.709 26.9124 105.314 25.8124 103.221 25.8124C101.128 25.8124 99.7326 26.9124 99.7326 28.4249C99.7326 29.6624 100.709 30.35 102.942 30.9L104.895 31.3124C108.384 32.1374 109.919 33.5124 109.919 35.9874C109.919 39.1499 107.268 41.2125 103.221 41.2125C99.314 41.2125 96.8024 39.2874 96.6628 36.1249H99.035Z" fill="white"/>
<path d="M115.221 25.5375V28.4249H117.593V30.4874H115.221V37.3624C115.221 38.4624 115.64 38.8749 116.756 38.8749C117.035 38.8749 117.314 38.8749 117.593 38.8749V40.9374C117.175 41.0749 116.616 41.075 116.198 41.075C113.686 41.075 112.709 40.1125 112.709 37.775V30.6249H110.896V28.5625H112.709V25.6749H115.221V25.5375Z" fill="white"/>
<path d="M119.128 34.7501C119.128 30.9001 121.5 28.425 125.128 28.425C128.756 28.425 131.128 30.9001 131.128 34.7501C131.128 38.7376 128.756 41.0751 125.128 41.0751C121.361 41.0751 119.128 38.6001 119.128 34.7501ZM128.477 34.7501C128.477 32.0001 127.221 30.4875 125.128 30.4875C123.035 30.4875 121.779 32.1376 121.779 34.7501C121.779 37.5001 123.035 39.0126 125.128 39.0126C127.221 39.0126 128.477 37.3626 128.477 34.7501Z" fill="white"/>
<path d="M133.221 28.4249H135.733V30.4874C136.012 29.1124 137.407 28.15 138.803 28.2875C139.082 28.2875 139.361 28.2874 139.64 28.4249V30.7625C139.221 30.625 138.803 30.625 138.524 30.625C137.128 30.625 135.872 31.725 135.872 33.1C135.872 33.2375 135.872 33.375 135.872 33.5125V40.9375H133.221V28.4249Z" fill="white"/>
<path d="M151.64 37.2249C151.221 39.4249 148.989 41.0748 146.198 41.0748C142.57 41.0748 140.198 38.5998 140.198 34.7498C140.198 30.8998 142.431 28.2874 146.059 28.2874C149.547 28.2874 151.78 30.6249 151.78 34.4749V35.2998H142.849V35.4373C142.71 37.2248 143.966 38.7373 145.78 39.0123C145.919 39.0123 146.059 39.0123 146.198 39.0123C147.454 39.1498 148.71 38.4624 149.128 37.2249H151.64ZM142.849 33.5123H149.128C149.268 31.8623 147.873 30.4874 146.198 30.3499C146.059 30.3499 146.059 30.3499 145.919 30.3499C144.245 30.3499 142.849 31.7248 142.849 33.5123Z" fill="white"/>
<path d="M50.1974 14.4001H51.3137C52.0114 14.5376 52.709 13.9876 52.8486 13.1626V13.0251C52.8486 12.2001 52.2904 11.7876 51.3137 11.7876C50.4765 11.6501 49.7788 12.2001 49.6393 13.0251H48.3834C48.523 11.6501 49.6392 10.55 51.1741 10.55H51.3137C52.9881 10.55 54.1044 11.5126 54.1044 12.7501C54.1044 13.7126 53.5462 14.4 52.5695 14.675V14.8126C53.6858 14.8126 54.523 15.775 54.3835 16.7375C54.2439 18.25 52.8486 19.3501 51.3137 19.2126C49.7788 19.3501 48.3834 18.3876 48.2439 16.8751C48.2439 16.8751 48.2439 16.875 48.2439 16.7375H49.4997C49.6392 17.5625 50.3369 17.9751 51.4532 17.9751C52.5695 17.9751 53.2672 17.4251 53.2672 16.6001C53.2672 15.7751 52.5695 15.2251 51.4532 15.2251H50.3369V14.4001H50.1974Z" fill="white"/>
<path d="M55.9184 17.4251C55.9184 16.3251 56.7556 15.6376 58.2905 15.6376L59.9649 15.5001V14.9501C59.9649 14.2626 59.5463 13.9876 58.7091 13.9876C58.0114 13.9876 57.5928 14.2626 57.4532 14.6751H56.1974C56.337 13.5751 57.3137 12.8876 58.7091 12.8876C60.244 12.8876 61.2207 13.7126 61.2207 14.9501V19.2126H59.9649V18.3876H59.8254C59.4068 19.0751 58.7091 19.3501 57.8718 19.3501C56.8951 19.4876 55.9183 18.6626 55.7788 17.7001C55.9183 17.5626 55.9184 17.5626 55.9184 17.4251ZM59.9649 16.8751V16.3251L58.43 16.4626C57.5928 16.4626 57.1742 16.8751 57.1742 17.2876C57.1742 17.8376 57.7323 18.1126 58.2905 18.1126C59.1277 18.3876 59.9649 17.7001 59.9649 16.8751C59.9649 17.0126 59.9649 16.8751 59.9649 16.8751Z" fill="white"/>
<path d="M64.5695 13.9875V19.2125H63.3137V13.025H67.4998V13.9875H64.5695Z" fill="white"/>
<path d="M74.8953 16.0501C74.8953 17.9751 73.9185 19.2126 72.2441 19.2126C71.4069 19.2126 70.7092 18.8001 70.2906 18.1126H70.1511V21.1376H68.8953V12.8876H70.1511V13.8501H70.2906C70.7092 13.1626 71.4069 12.7501 72.2441 12.7501C73.9185 12.8876 74.8953 14.1251 74.8953 16.0501ZM73.6395 16.0501C73.6395 14.6751 72.9418 13.9876 71.965 13.9876C70.9883 13.9876 70.2906 14.8126 70.2906 16.0501C70.2906 17.2876 70.9883 18.1126 71.965 18.1126C73.0813 18.2501 73.6395 17.4251 73.6395 16.0501Z" fill="white"/>
<path d="M76.5698 21.4125V20.3125C76.7093 20.3125 76.8488 20.3125 76.9883 20.3125C77.5465 20.3125 77.9651 20.0375 78.1046 19.4875L78.2442 19.2125L76.0116 13.025H77.407L78.9419 17.975H79.0814L80.6163 13.025H81.8721L79.5 19.4875C78.9419 21 78.3837 21.4125 77.1279 21.4125C76.9884 21.4125 76.7093 21.4125 76.5698 21.4125Z" fill="white"/>
<path d="M82.8489 17.425H84.1047C84.2442 17.975 84.8024 18.25 85.5 18.25C86.3373 18.25 86.8954 17.8376 86.8954 17.2876C86.8954 16.7376 86.4768 16.4626 85.5 16.4626H84.5233V15.5H85.5C86.1977 15.5 86.6163 15.225 86.6163 14.675C86.6163 14.2625 86.1977 13.8501 85.5 13.8501C84.8024 13.8501 84.2442 14.125 84.2442 14.675H82.9884C83.1279 13.575 84.2442 12.7501 85.5 12.8876C87.0349 12.8876 87.8722 13.5751 87.8722 14.5376C87.8722 15.0876 87.4536 15.6376 86.8954 15.7751V15.9126C87.5931 16.0501 88.1512 16.6001 88.1512 17.2876C88.1512 18.5251 87.1745 19.2126 85.6396 19.2126C84.1047 19.3501 82.9884 18.6625 82.8489 17.425Z" fill="white"/>
<path d="M89.8256 19.2125V13.025H91.0814V17.2875H91.2209L94.1512 13.025H95.407V19.2125H94.1512V14.95H94.0117L91.0814 19.2125H89.8256Z" fill="white"/>
<path d="M101.965 13.9875H100.012V19.2125H98.7559V13.9875H96.8024V13.025H101.965V13.9875Z" fill="white"/>
<path d="M108.663 17.5625C108.384 18.6625 107.128 19.4875 105.872 19.35C104.337 19.35 102.942 18.1125 102.942 16.6C102.942 16.4625 102.942 16.325 102.942 16.1875C102.663 14.675 103.779 13.1625 105.454 13.025C105.593 13.025 105.733 13.025 105.872 13.025C107.686 13.025 108.663 14.2625 108.663 16.1875V16.6H104.198C104.058 17.5625 104.756 18.25 105.733 18.3875H105.872C106.43 18.525 107.128 18.1125 107.407 17.7L108.663 17.5625ZM104.337 15.5H107.547C107.547 14.675 106.989 13.9875 106.151 13.85H106.012C105.035 13.85 104.337 14.675 104.337 15.5Z" fill="white"/>
<path d="M113.965 13.025H116.756C118.012 13.025 118.71 13.575 118.71 14.5375C118.71 15.225 118.291 15.775 117.593 15.9125V16.05C118.291 16.05 118.989 16.7375 118.989 17.425C118.989 18.525 118.151 19.2125 116.756 19.2125H113.826V13.025H113.965ZM115.221 13.9875V15.6375H116.477C117.175 15.6375 117.593 15.3625 117.593 14.8125C117.593 14.2625 117.314 13.9875 116.617 13.9875H115.221ZM115.221 16.4625V18.25H116.756C117.454 18.25 117.872 17.975 117.872 17.2875C117.872 16.6 117.454 16.325 116.617 16.325L115.221 16.4625Z" fill="white"/>
</g>
<defs>
<clipPath id="clip0_305_165">
<rect width="165" height="51.0001" fill="white"/>
</clipPath>
</defs>
</svg>
