<svg width="32" height="32" viewBox="0 0 32 32" fill="none" xmlns="http://www.w3.org/2000/svg">
<rect x="0.5" y="0.5" width="31" height="31" rx="7.5" fill="white"/>
<path d="M16.0002 13.2227C14.5548 13.2227 13.3335 14.444 13.3335 15.8893C13.3335 17.3347 14.5548 18.556 16.0002 18.556C17.4455 18.556 18.6668 17.3347 18.6668 15.8893C18.6668 14.444 17.4455 13.2227 16.0002 13.2227Z" fill="#828282"/>
<path d="M23.1108 9.66667H20.8122L18.4059 7.26045C18.3235 7.17774 18.2256 7.11215 18.1177 7.06745C18.0099 7.02276 17.8943 6.99983 17.7775 7H14.2219C14.1052 6.99983 13.9896 7.02276 13.8817 7.06745C13.7739 7.11215 13.6759 7.17774 13.5935 7.26045L11.1873 9.66667H8.88862C7.90817 9.66667 7.11084 10.464 7.11084 11.4444V21.2222C7.11084 22.2027 7.90817 23 8.88862 23H23.1108C24.0913 23 24.8886 22.2027 24.8886 21.2222V11.4444C24.8886 10.464 24.0913 9.66667 23.1108 9.66667ZM15.9997 20.3333C13.5908 20.3333 11.5553 18.2978 11.5553 15.8889C11.5553 13.48 13.5908 11.4444 15.9997 11.4444C18.4086 11.4444 20.4442 13.48 20.4442 15.8889C20.4442 18.2978 18.4086 20.3333 15.9997 20.3333Z" fill="#828282"/>
<rect x="0.5" y="0.5" width="31" height="31" rx="7.5" stroke="#E0E0E0"/>
</svg>
