<svg width="165" height="51" viewBox="0 0 165 51" fill="none" xmlns="http://www.w3.org/2000/svg">
<g clip-path="url(#clip0_305_136)">
<path d="M9.88353 51.0001C9.47171 51.0001 9.0599 51.0001 8.64809 51.0001C7.82446 51.0001 7.00083 50.8604 6.1772 50.7207C5.49085 50.5809 4.80449 50.4412 4.11814 50.022C3.43178 49.7426 2.8827 49.1837 2.33361 48.6248C1.78453 48.0659 1.37271 47.507 0.960898 46.8083C0.549085 46.1097 0.411814 45.4111 0.274542 44.5727C0.137271 43.7344 0 42.896 0 42.0577C0 41.7782 0 40.9398 0 40.9398V10.2001C0 10.2001 0 9.22204 0 8.94259C0 8.10423 0.137271 7.26588 0.274542 6.42752C0.411814 5.58916 0.686356 4.89053 0.960898 4.1919C1.23544 3.49327 1.78453 2.93437 2.33361 2.37546C2.74542 1.81656 3.43178 1.39738 4.11814 0.978204C4.80449 0.698752 5.49085 0.4193 6.31448 0.279574C7.1381 0.139848 7.96173 0.139848 8.78536 0.00012207H10.0208H154.979H156.215C157.038 0.00012207 157.862 0.139848 158.686 0.279574C159.509 0.4193 160.196 0.698752 160.882 0.978204C162.255 1.67683 163.353 2.79464 164.039 4.1919C164.314 4.89053 164.588 5.58916 164.725 6.42752C164.863 7.26588 165 8.10423 165 8.94259C165 9.36177 165 9.78094 165 10.0604C165 10.6193 165 11.0385 165 11.4577V39.4029C165 39.822 165 40.3809 165 40.8001C165 41.2193 165 41.6385 165 42.0577C165 42.896 164.863 43.7344 164.725 44.5727C164.588 45.4111 164.314 46.1097 164.039 46.8083C163.627 47.507 163.215 48.0659 162.666 48.6248C162.117 49.1837 161.568 49.6029 160.882 50.022C160.196 50.4412 159.509 50.5809 158.686 50.7207C157.862 50.8604 157.038 50.8604 156.215 51.0001C155.803 51.0001 155.391 51.0001 154.979 51.0001H153.606H9.88353Z" fill="#333333"/>
<path d="M47.9716 13.95H49.065C49.7484 14.0875 50.4317 13.5375 50.5684 12.85V12.7125C50.5684 12.025 50.0217 11.475 49.065 11.475C48.245 11.3375 47.5616 11.8875 47.5616 12.7125H46.4683C46.6049 11.3375 47.6983 10.375 49.065 10.375H49.2017C50.7051 10.375 51.7985 11.2 51.7985 12.4375C51.7985 13.2625 51.2518 14.0875 50.4317 14.225V14.5C51.3884 14.5 52.2085 15.325 52.2085 16.425C52.0718 17.8 50.8417 18.9 49.3384 18.7625C47.9716 18.9 46.6049 17.9375 46.4683 16.5625C46.4683 16.5625 46.4683 16.5625 46.4683 16.425H47.5616C47.6983 17.1125 48.3817 17.6625 49.3384 17.6625C50.2951 17.6625 50.9784 17.1125 50.9784 16.2875C50.9784 15.4625 50.2951 15.05 49.3384 15.05H48.245V13.95H47.9716Z" fill="white"/>
<path d="M53.3018 16.8376C53.3018 15.7376 54.1218 15.1876 55.4885 15.0501L57.1286 14.9126V14.5001C57.1286 13.8126 56.7186 13.5376 55.8985 13.5376C55.2152 13.5376 54.8051 13.8126 54.6685 14.2251H53.5751C53.7118 13.2626 54.6685 12.5751 56.0352 12.5751C57.5386 12.5751 58.3586 13.2626 58.3586 14.5001V18.4876H57.2652V17.6626H57.1286C56.7185 18.2126 56.0352 18.6251 55.3518 18.6251C54.3951 18.7626 53.5751 18.0751 53.4384 16.9751C53.3018 16.9751 53.3018 16.8376 53.3018 16.8376ZM57.1286 16.2876V15.8751L55.7618 16.0126C54.9418 16.0126 54.5318 16.2876 54.5318 16.8376C54.5318 17.3876 54.9418 17.6626 55.6252 17.6626C56.3085 17.6626 56.9919 17.1126 57.1286 16.2876Z" fill="white"/>
<path d="M61.3655 13.5376V18.4876H60.1355V12.5751H63.9623V13.5376H61.3655Z" fill="white"/>
<path d="M71.0692 15.6C71.0692 17.525 70.1125 18.625 68.6091 18.625C67.9257 18.625 67.1057 18.35 66.8323 17.6625H66.6957V20.55H65.6023V12.7125H66.6957V13.675H66.8323C67.2424 12.9875 67.9257 12.575 68.6091 12.575C70.1125 12.4375 71.0692 13.675 71.0692 15.6ZM69.8391 15.6C69.8391 14.3625 69.2924 13.5375 68.3357 13.5375C67.379 13.5375 66.6957 14.3625 66.6957 15.6C66.6957 16.8375 67.2424 17.6625 68.3357 17.6625C69.2924 17.525 69.8391 16.8375 69.8391 15.6Z" fill="white"/>
<path d="M72.5726 20.5501V19.5876C72.7092 19.5876 72.8459 19.5876 72.9826 19.5876C73.5293 19.5876 73.9393 19.3126 74.076 18.7626L74.2126 18.4876L72.0259 12.5751H73.2559L74.7593 17.2501H74.896L76.3994 12.5751H77.6294L75.4427 18.7626C74.896 20.1376 74.3493 20.6876 73.2559 20.6876C72.9826 20.6876 72.7092 20.6876 72.5726 20.5501Z" fill="white"/>
<path d="M78.4495 16.8375H79.5428C79.6795 17.3875 80.0895 17.6625 80.7729 17.6625C81.5929 17.6625 82.0029 17.3875 82.0029 16.8375C82.0029 16.2875 81.5929 16.0125 80.7729 16.0125H79.9528V15.05H80.7729C81.4562 15.05 81.8663 14.775 81.8663 14.225C81.8663 13.8125 81.4562 13.4 80.7729 13.4C80.0895 13.4 79.6795 13.675 79.5428 14.0875H78.4495C78.5861 12.9875 79.6795 12.1625 80.7729 12.3C82.1396 12.3 82.9596 12.9875 82.9596 13.95C82.9596 14.5 82.5496 15.05 82.0029 15.1875V15.325C82.6863 15.4625 83.0963 16.0125 83.0963 16.7C83.0963 17.8 82.1396 18.625 80.6362 18.625C79.5428 18.625 78.5861 18.075 78.4495 16.8375Z" fill="white"/>
<path d="M84.873 18.4876V12.5751H86.1031V16.7001H86.2398L88.9732 12.5751H90.0666V18.4876H88.8365V14.3626L86.1031 18.4876H84.873Z" fill="white"/>
<path d="M96.3535 13.5376H94.4401V18.4876H93.3468V13.5376H91.4333V12.5751H96.3535V13.5376Z" fill="white"/>
<path d="M102.64 16.8375C102.367 17.9375 101.274 18.625 100.044 18.4875C98.5401 18.4875 97.3101 17.3875 97.3101 15.875C97.3101 15.7375 97.3101 15.6 97.3101 15.4625C97.1734 13.95 98.1301 12.575 99.6335 12.4375C99.7702 12.4375 99.9068 12.4375 100.044 12.4375C101.684 12.4375 102.64 13.5375 102.64 15.4625V15.875H98.5401C98.4034 16.7 99.0868 17.525 99.9068 17.525H100.044C100.59 17.525 101.137 17.25 101.41 16.8375H102.64ZM98.5401 15.05H101.547C101.547 14.225 101 13.5375 100.18 13.5375H100.044C99.2235 13.4 98.5401 14.0875 98.5401 15.05C98.5401 14.9125 98.5401 15.05 98.5401 15.05Z" fill="white"/>
<path d="M107.56 12.5751H110.157C111.251 12.5751 111.934 13.1251 111.934 14.0876C111.934 14.6376 111.524 15.1876 110.977 15.3251V15.4626C111.661 15.4626 112.207 16.1501 112.207 16.8376C112.207 17.8001 111.387 18.4876 110.157 18.4876H107.424V12.5751H107.56ZM108.654 13.5376V15.0501H109.747C110.431 15.0501 110.841 14.7751 110.841 14.2251C110.841 13.8126 110.567 13.4001 109.884 13.4001L108.654 13.5376ZM108.654 15.8751V17.6626H110.021C110.704 17.6626 111.114 17.3876 111.114 16.8376C111.114 16.2876 110.704 16.0126 109.884 16.0126L108.654 15.8751Z" fill="white"/>
<path d="M18.4504 11.0625C17.3571 10.5125 15.9903 10.5125 14.897 11.0625L27.7441 23.025L32.1176 18.625L18.4504 11.0625Z" fill="white"/>
<path d="M13.667 12.3C13.3937 12.85 13.1204 13.4 13.1204 14.0875V35.6751C13.1204 36.2251 13.257 36.9126 13.5304 37.3251L26.5142 24.2626L13.667 12.3Z" fill="white"/>
<path d="M37.9945 21.925L33.8944 19.5875L29.2476 24.2625L34.9878 29.4875L38.1312 27.8375C39.2246 27.15 39.9079 26.05 39.9079 24.8125C39.7713 23.575 39.0879 22.475 37.9945 21.925Z" fill="white"/>
<path d="M27.8808 25.5L14.897 38.5625C15.4437 38.8375 16.127 39.1125 16.6737 39.1125C17.2204 39.1125 17.9038 38.975 18.4504 38.7L33.211 30.45L27.8808 25.5Z" fill="white"/>
<path d="M79.9528 28.6626C77.0827 28.6626 74.6226 31.1376 74.6226 34.0251C74.6226 36.9126 77.0827 39.3876 79.9528 39.3876C82.8229 39.3876 85.283 37.0501 85.283 34.0251C85.283 31.1376 82.9596 28.6626 80.0895 28.6626H79.9528ZM79.9528 37.1876C78.1761 37.3251 76.6727 35.9501 76.536 34.1626C76.3994 32.3751 77.7661 30.8626 79.5428 30.7251C81.3195 30.5876 82.8229 31.9626 82.9596 33.7501C82.9596 33.8876 82.9596 33.8876 82.9596 34.0251C82.9596 35.6751 81.7296 37.0501 79.9528 37.1876ZM68.3357 28.6626C65.4656 28.6626 63.0055 31.1376 63.0055 34.0251C63.0055 36.9126 65.4656 39.3876 68.3357 39.3876C71.2058 39.3876 73.6659 37.0501 73.6659 34.0251C73.6659 31.1376 71.3425 28.6626 68.4724 28.6626C68.3357 28.6626 68.3357 28.6626 68.3357 28.6626ZM68.3357 37.1876C66.559 37.3251 65.0556 35.9501 64.9189 34.1626C64.7823 32.3751 66.149 30.8626 67.9257 30.7251C69.7025 30.5876 71.2058 31.9626 71.3425 33.7501C71.3425 33.8876 71.3425 33.8876 71.3425 34.0251C71.3425 35.6751 70.1125 37.0501 68.3357 37.1876ZM54.3952 30.3126V32.5126H59.8621C59.7254 33.6126 59.3154 34.5751 58.6321 35.4001C57.5387 36.5001 56.0353 37.1876 54.5319 37.0501C51.2518 37.0501 48.5183 34.3001 48.5183 31.0001C48.5183 27.7001 51.2518 24.9501 54.5319 24.9501C56.0353 24.9501 57.5387 25.5001 58.6321 26.6001L60.2721 24.9501C58.7687 23.4376 56.7186 22.6126 54.6686 22.6126C50.1584 22.4751 46.1949 26.0501 46.0583 30.5876C45.9216 35.1251 49.475 39.1126 53.9852 39.2501C54.2586 39.2501 54.3952 39.2501 54.6686 39.2501C56.8553 39.3876 58.9054 38.5626 60.4088 36.9126C61.7755 35.4001 62.4589 33.6126 62.3222 31.5501C62.3222 31.1376 62.3222 30.5876 62.1855 30.1751L54.3952 30.3126ZM111.114 31.9626C110.431 30.0376 108.654 28.6626 106.604 28.5251C103.87 28.5251 101.547 30.7251 101.547 33.6126C101.547 33.7501 101.547 33.8876 101.547 33.8876C101.547 36.7751 103.734 39.1126 106.604 39.2501H106.74C108.517 39.2501 110.157 38.4251 111.114 36.9126L109.337 35.6751C108.791 36.6376 107.834 37.1876 106.74 37.1876C105.647 37.1876 104.554 36.6376 104.144 35.5376L111.251 32.5126L111.114 31.9626ZM103.87 33.7501C103.734 32.1001 104.964 30.7251 106.604 30.5876C107.424 30.5876 108.244 31.0001 108.517 31.6876L103.87 33.7501ZM98.1302 38.9751H100.454V23.3001H98.1302V38.9751ZM94.3034 29.7626C93.4833 28.9376 92.5266 28.5251 91.4333 28.5251C88.4265 28.6626 86.2397 31.1376 86.3764 34.1626C86.5131 36.9126 88.6998 39.1126 91.4333 39.2501C92.5266 39.2501 93.4833 38.8376 94.3034 38.0126H94.44V38.8376C94.44 40.9001 93.3467 42.0001 91.5699 42.0001C90.3399 42.0001 89.3832 41.1751 88.8365 40.0751L86.7864 40.9001C87.6064 42.8251 89.3832 44.0626 91.5699 44.0626C94.3034 44.0626 96.6268 42.4126 96.6268 38.4251V28.9376H94.3034V29.7626ZM91.5699 37.1876C89.7932 37.0501 88.4265 35.4001 88.5632 33.6126C88.6998 32.1001 89.9299 30.7251 91.5699 30.5876C93.21 30.7251 94.44 32.1001 94.44 33.7501C94.44 33.7501 94.44 33.7501 94.44 33.8876C94.5767 35.5376 93.3467 37.0501 91.5699 37.1876C91.7066 37.1876 91.5699 37.1876 91.5699 37.1876ZM122.048 23.3001H116.444V38.9751H118.768V33.0626H122.048C124.781 33.2001 127.105 31.2751 127.241 28.5251C127.378 25.7751 125.465 23.4376 122.731 23.3001C122.594 23.1626 122.321 23.1626 122.048 23.3001ZM122.048 30.8626H118.768V25.5001H122.048C123.551 25.5001 124.781 26.7376 124.781 28.2501C124.781 29.6251 123.551 30.8626 122.048 30.8626ZM136.535 28.5251C134.758 28.3876 133.118 29.3501 132.435 30.8626L134.485 31.6876C134.895 30.8626 135.715 30.4501 136.672 30.5876C137.902 30.4501 138.995 31.2751 139.132 32.5126V32.6501C138.312 32.2376 137.492 32.1001 136.672 32.1001C134.485 32.1001 132.161 33.3376 132.161 35.6751C132.298 37.7376 133.938 39.2501 135.988 39.1126C135.988 39.1126 135.988 39.1126 136.125 39.1126C137.355 39.2501 138.448 38.5626 139.132 37.6001H139.268V38.8376H141.455V32.7876C141.318 30.1751 139.268 28.5251 136.535 28.5251ZM136.262 37.1876C135.442 37.1876 134.485 36.7751 134.485 35.8126C134.485 34.5751 135.852 34.1626 136.945 34.1626C137.628 34.1626 138.448 34.3001 139.132 34.7126C138.858 36.0876 137.628 37.1876 136.262 37.1876ZM149.519 28.9376L146.785 35.8126H146.649L143.915 28.9376H141.455L145.555 38.4251L143.232 43.7876H145.692L152.115 28.9376H149.519ZM128.471 38.9751H130.795V23.3001H128.471V38.9751Z" fill="white"/>
</g>
<defs>
<clipPath id="clip0_305_136">
<rect width="165" height="51" fill="white"/>
</clipPath>
</defs>
</svg>
