<svg width="24" height="17" viewBox="0 0 24 17" fill="none" xmlns="http://www.w3.org/2000/svg">
<path d="M9.6 7.28563H6.1212L6.1224 7.2747C6.27909 6.4983 6.58576 5.76086 7.0248 5.1047C7.67815 4.13059 8.59457 3.3672 9.6648 2.90556C10.0272 2.75013 10.4052 2.63113 10.7904 2.55219C11.5895 2.38825 12.4129 2.38825 13.212 2.55219C14.3604 2.79031 15.4141 3.36508 16.242 4.20489L17.9412 2.49026C17.1754 1.71509 16.2693 1.09627 15.2724 0.667564C14.764 0.44975 14.2354 0.283781 13.6944 0.17212C12.5782 -0.0573735 11.4278 -0.0573735 10.3116 0.17212C9.77022 0.284244 9.24121 0.450617 8.7324 0.668779C7.23303 1.3125 5.94952 2.38108 5.0364 3.74587C4.42187 4.66615 3.99212 5.69971 3.7716 6.78775C3.738 6.95169 3.72 7.11926 3.696 7.28563H0L4.8 12.1429L9.6 7.28563ZM14.4 9.71427H17.8788L17.8776 9.72399C17.5641 11.2805 16.6575 12.6494 15.354 13.5345C14.7058 13.9792 13.977 14.2895 13.2096 14.4477C12.4109 14.6116 11.5879 14.6116 10.7892 14.4477C10.022 14.2891 9.29322 13.9788 8.6448 13.5345C8.32635 13.3166 8.02902 13.0685 7.7568 12.7938L6.06 14.5109C6.82621 15.2858 7.73271 15.9042 8.73 16.3323C9.2388 16.5509 9.7704 16.7173 10.308 16.8278C11.4238 17.0574 12.5738 17.0574 13.6896 16.8278C15.8407 16.376 17.7327 15.093 18.9636 13.2516C19.5775 12.332 20.0069 11.2993 20.2272 10.2121C20.2596 10.0482 20.2788 9.88064 20.3028 9.71427H24L19.2 4.85698L14.4 9.71427Z" fill="white"/>
</svg>
