<svg width="162" height="99" viewBox="0 0 162 99" fill="none" xmlns="http://www.w3.org/2000/svg">
<path d="M138.715 46.0217L138.723 43.5498C139.088 43.4604 139.544 43.1689 139.92 42.9143C140.551 42.3585 141.009 41.451 141.196 40.0596C140.196 40.2578 139.361 40.4307 138.727 40.5376L138.73 37.782C140.276 37.6946 141.302 37.5002 141.846 37.3273C141.941 36.9658 141.941 36.5985 141.941 36.4198C141.941 36.0486 141.743 35.761 141.489 35.5802C141.114 35.3121 140.654 35.2324 140.017 35.2305C139.557 35.2285 139.105 35.3101 138.732 35.487L138.736 32.1892C139.198 32.1037 139.662 32.1056 140.109 32.1056C142.857 32.1134 144.688 32.4826 145.61 33.1122C146.613 33.8468 147.064 34.8554 147.062 36.1399C147.056 36.9755 146.788 38.4408 146.318 40.4424C145.854 42.2652 145.68 43.6411 145.68 44.3912C145.678 45.017 145.757 45.6447 146.031 46.3151L140.825 46.3054C140.726 45.7515 140.641 45.2016 140.641 44.6633C140 45.1996 139.453 45.6369 138.715 46.0217ZM161.803 32.5798L159.771 36.7054C159.408 36.5325 159.045 36.5325 158.68 36.5325C157.662 36.5305 156.837 36.8842 156.212 37.6149C155.582 38.3475 155.102 39.5601 154.741 41.0915L153.638 46.3287L148.32 46.319L151.284 32.4943L156.315 32.504L155.648 35.143V35.2577C156.504 34.0684 157.224 33.2211 157.874 32.7605C158.505 32.399 159.142 32.1406 159.963 32.1444C160.514 32.1444 161.063 32.3213 161.803 32.5798ZM138.736 32.1892L138.732 35.487H138.548C138.187 35.7551 137.814 36.1244 137.542 36.754L132.596 36.2099C132.963 34.9195 133.713 33.9168 134.786 33.1822C135.718 32.6439 137.088 32.2805 138.736 32.1892ZM138.73 37.782L138.727 40.5376C137.806 40.7961 137.166 40.9749 136.884 41.1712C136.523 41.4413 136.263 41.7988 136.261 42.2497C136.261 42.718 136.432 43.0814 136.708 43.2622C137.071 43.5478 137.434 43.7188 137.902 43.7188C138.171 43.7208 138.453 43.6314 138.723 43.5498L138.715 46.0217C137.9 46.3889 136.989 46.5599 135.96 46.5599C134.231 46.5561 133.047 46.1791 132.222 45.3609C131.492 44.537 131.113 43.6158 131.113 42.5334C131.117 41.2411 131.412 40.3414 132.136 39.6826C132.771 39.0529 133.616 38.5885 134.598 38.4194C135.609 38.1338 137.003 37.9511 138.73 37.782ZM65.6134 46.4395L65.6212 43.3321C66.4443 43.1417 66.9819 42.788 67.5449 42.1311L72.5627 42.6073C71.8406 43.9715 70.8196 44.9859 69.5326 45.5164C68.5349 46.0683 67.1664 46.354 65.6134 46.4395ZM65.627 40.592L65.629 38.0113L68.1777 38.0172C68.2786 37.8325 68.2786 37.5702 68.2786 37.199C68.2806 36.548 68.0865 36.0039 67.6439 35.6327C67.2595 35.2693 66.7199 35.1041 66.0813 35.1041L65.6367 35.1022L65.6406 31.9812H66.2637C68.8435 31.9871 70.6643 32.5331 71.7436 33.7205C72.8656 34.8185 73.4945 36.1963 73.4925 37.8423C73.4925 38.3825 73.3178 39.3095 73.116 40.6056L65.627 40.592ZM100.494 32.4068L92.5934 46.2238L87.8434 46.216L87.032 37.9725H86.9427L82.3422 46.2063L77.5884 46.1985L75.5152 32.3641L80.2691 32.3738L80.7971 41.072L85.6596 32.3835L90.4251 32.3913L91.2385 40.9807L95.0159 32.401L100.494 32.4068ZM118.702 32.4399L113.204 32.6847C113.109 31.0446 112.216 30.2128 110.469 30.2109C109.743 30.2089 109.19 30.3974 108.814 30.6598C108.453 30.9552 108.268 31.3263 108.268 31.7616C108.266 32.0512 108.354 32.3116 108.734 32.5973C109.008 32.8557 109.74 33.2269 110.83 33.6836C112.288 34.2471 113.484 34.7077 114.387 35.2693C115.307 35.7143 116.042 36.3751 116.586 37.1893C117.126 38.0249 117.411 38.9363 117.407 40.1393C117.405 41.2178 117.118 42.3177 116.471 43.2252C115.846 44.2513 115.019 44.9664 113.841 45.5902C112.64 46.2587 110.995 46.5153 108.783 46.5133C105.782 46.5075 103.662 45.9634 102.392 44.7682C101.105 43.5673 100.48 42.102 100.482 40.2889V39.8011L106.059 39.4746C106.059 40.6639 106.344 41.4918 106.882 42.0398C107.344 42.4926 108.064 42.7355 108.992 42.7394C110 42.7394 110.634 42.5762 111.186 42.1214C111.632 41.7561 111.916 41.2975 111.916 40.7514C111.916 40.3822 111.737 40.0071 111.467 39.6476C111.106 39.2842 110.378 38.9247 109.175 38.4408C106.352 37.44 104.595 36.5344 103.772 35.6968C103.058 34.8671 102.678 33.8643 102.68 32.5876C102.68 31.4837 103.064 30.584 103.602 29.6512C104.256 28.7379 105.174 27.9975 106.265 27.5583C107.455 26.9908 108.819 26.8081 110.475 26.8101C115.676 26.8217 118.434 28.6776 118.702 32.4399ZM130.599 32.4593L129.764 36.2041L127.021 36.1982L126.004 41.039C125.915 41.3188 125.915 41.5248 125.915 41.7814C125.915 42.4129 126.282 42.7005 127.095 42.7025C127.373 42.7025 127.928 42.6053 128.755 42.4168L127.922 46.284C126.367 46.455 125.17 46.5405 124.44 46.5386C122.97 46.5386 121.879 46.1616 121.332 45.5242C120.699 44.7993 120.321 43.9831 120.321 43.1358C120.321 42.8774 120.493 42.137 120.8 40.9457L121.712 36.1904L119.882 36.1866L120.625 32.4418L122.547 32.4457L122.996 30.2323L128.957 27.3192L127.846 32.4554L130.599 32.4593ZM56.9501 27.0161L52.7903 46.1538L47.2988 46.146L42.5624 34.9506L40.1709 46.1324L34.592 46.1227L38.7422 26.985L44.2318 26.9947L48.9778 38.1649L51.4567 27.0064L56.9501 27.0161ZM65.6406 31.9812L65.6367 35.1022C65.167 35.1838 64.7205 35.45 64.3401 35.8134C63.7888 36.2837 63.3462 37.0028 63.0667 38.0094L65.629 38.0113L65.627 40.592L62.6086 40.5901C62.6804 42.4129 63.5112 43.3302 65.0583 43.3321H65.6212L65.6134 46.4395L64.8642 46.4375C62.1446 46.4317 60.2074 45.8021 59.1087 44.605C57.9246 43.4118 57.383 41.8435 57.3869 40.1159C57.3888 38.8353 57.6548 37.7237 58.2255 36.6199C58.7709 35.52 59.3998 34.6125 60.417 33.9032C61.3235 33.1433 62.166 32.5973 63.0744 32.4107C63.7965 32.1542 64.7263 32.0648 65.6406 31.9812Z" fill="#038ED7"/>
<path d="M36.6478 13.2283C14.7809 18.5005 0.214528 27.8186 0.197039 38.4719C0.16794 54.9473 35.5491 68.4669 78.9279 68.541C110.491 68.5951 137.875 61.4982 150.418 51.253L149.141 51.2511C143.186 55.7382 134.474 59.3897 123.59 61.9315C112.886 64.2849 99.9815 65.7346 85.4229 65.7093C63.5501 65.6724 45.7266 62.6311 33.2838 57.4716C20.4995 52.2266 13.3541 44.6982 13.3716 35.9106C13.3852 26.47 21.8214 18.5141 36.6478 13.2283Z" fill="#038ED7"/>
<path d="M48.2714 0.165283L46.5244 7.42161L39.5266 4.15101L44.3853 10.1558C44.3853 10.1558 44.5328 10.1558 44.5328 10.0431L37.3875 13.3856L45.1229 13.3992V13.2729L43.3603 20.6536L48.12 14.8975L48.3627 14.8995L52.969 20.6711L51.3734 13.5469L51.5034 13.4109L58.9768 13.4225L52.2624 10.1694L52.1304 10.0587L56.8707 4.18016L50.1233 7.42743C50.0088 7.42549 50.0088 7.42549 49.8884 7.28946L48.2714 0.165283Z" fill="#038ED7"/>
<path d="M18.5 83.7471H24.6534V85.8925C25.5386 84.9928 26.4354 84.3534 27.338 83.9745C28.2387 83.5955 29.3296 83.4051 30.6088 83.4051C31.9812 83.4051 33.0663 83.613 33.868 84.0308C34.6697 84.4467 35.3239 85.0686 35.8325 85.8925C36.8671 84.9306 37.8085 84.2718 38.6607 83.9259C39.5129 83.58 40.565 83.4051 41.8151 83.4051C43.6592 83.4051 45.0975 83.8754 46.1322 84.8159C47.1668 85.7546 47.687 87.2276 47.687 89.2253V98.4949H41.0794V90.0687C41.0794 89.3963 40.9299 88.8988 40.6251 88.5762C40.1884 88.0652 39.6352 87.8106 38.981 87.8106C38.2065 87.8106 37.5814 88.0515 37.1059 88.5354C36.6342 89.0174 36.3973 89.7947 36.3973 90.8596V98.4949H29.7897V90.368C29.7897 89.7189 29.745 89.2778 29.6557 89.0465C29.5179 88.6773 29.2753 88.378 28.9259 88.1507C28.5823 87.9233 28.1727 87.8106 27.7088 87.8106C26.9498 87.8106 26.3247 88.0554 25.8375 88.5432C25.3503 89.0368 25.1077 89.8413 25.1077 90.9646V98.4949H18.5V83.7471ZM57.682 88.5199L51.3733 87.9524C51.612 87.0041 51.9537 86.2618 52.4021 85.7215C52.8505 85.1774 53.493 84.7071 54.3393 84.3107C54.943 84.0211 55.7738 83.7976 56.8298 83.6422C57.8877 83.4867 59.033 83.4051 60.2676 83.4051C62.2417 83.4051 63.8257 83.5003 65.0273 83.6888C66.2211 83.8793 67.2227 84.2776 68.0205 84.8781C68.5854 85.2959 69.0279 85.8867 69.3482 86.6504C69.6743 87.4122 69.8355 88.1409 69.8355 88.8386V95.3545C69.8355 96.0502 69.8859 96.5943 69.9908 96.9888C70.0898 97.3814 70.3169 97.8828 70.6604 98.4949H64.4779C64.2294 98.116 64.0683 97.8303 63.9907 97.6321C63.9189 97.4338 63.8412 97.1249 63.7636 96.7032C62.9017 97.4144 62.0437 97.9216 61.1857 98.2248C60.0172 98.6309 58.6622 98.835 57.1171 98.835C55.0653 98.835 53.5046 98.4288 52.4409 97.6087C51.3733 96.7945 50.8414 95.7859 50.8414 94.5908C50.8414 93.4695 51.2238 92.5464 51.9925 91.8216C52.7631 91.0967 54.1782 90.5565 56.2436 90.2067C58.7166 89.7792 60.3219 89.4818 61.0576 89.3069C61.7952 89.1359 62.5736 88.9124 63.3928 88.6345C63.3928 87.9369 63.2278 87.455 62.8901 87.1751C62.5581 86.8953 61.9719 86.7592 61.1294 86.7592C60.0502 86.7592 59.2426 86.905 58.7011 87.2043C58.2798 87.4413 57.9421 87.8766 57.682 88.5199ZM63.3928 91.4757C62.4863 91.7555 61.539 92.0004 60.549 92.2199C59.2096 92.527 58.3575 92.8301 58.0042 93.1275C57.6334 93.4365 57.449 93.7863 57.449 94.1788C57.449 94.6297 57.6334 94.9989 57.9926 95.2826C58.3575 95.5683 58.8894 95.7101 59.5921 95.7101C60.3277 95.7101 61.013 95.5527 61.6497 95.2457C62.2805 94.9367 62.7289 94.5636 62.9949 94.1186C63.2608 93.6735 63.3928 93.0944 63.3928 92.3851V91.4757ZM73.8536 83.7471H80.042V86.1529C80.6379 85.1055 81.2533 84.3865 81.8841 83.992C82.5208 83.5994 83.3012 83.4051 84.231 83.4051C85.2093 83.4051 86.2789 83.6655 87.4358 84.1863L85.3879 88.1973C84.6076 87.9194 83.9864 87.7814 83.5341 87.7814C82.6703 87.7814 81.9948 88.0885 81.5192 88.7006C80.8379 89.5615 80.4943 91.1764 80.4943 93.5395V98.4949H73.8536V83.7471ZM89.6274 78.1484H96.367V88.6248L101.299 83.7471H109.417L103.241 88.9085L109.782 98.4949H102.35L98.8517 92.5833L96.367 94.6627V98.4949H89.6274V78.1484ZM129.766 92.527H116.518C116.64 93.4306 116.922 94.1088 117.382 94.5539C118.019 95.1932 118.853 95.51 119.882 95.51C120.536 95.51 121.155 95.3739 121.736 95.098C122.097 94.9231 122.483 94.616 122.893 94.1749L129.401 94.686C128.406 96.1649 127.204 97.2298 125.799 97.8692C124.393 98.5124 122.372 98.835 119.744 98.835C117.459 98.835 115.666 98.561 114.354 98.0071C113.047 97.4572 111.962 96.5807 111.1 95.3817C110.242 94.1788 109.809 92.768 109.809 91.1492C109.809 88.8425 110.673 86.9711 112.401 85.5466C114.121 84.1202 116.506 83.4051 119.544 83.4051C122.013 83.4051 123.956 83.7277 125.383 84.367C126.812 85.0064 127.903 85.9295 128.65 87.1479C129.396 88.3586 129.766 89.9404 129.766 91.8876V92.527ZM123.06 89.8277C122.932 88.7278 122.584 87.9427 122.025 87.4686C121.466 86.9944 120.736 86.7592 119.822 86.7592C118.77 86.7592 117.929 87.1188 117.298 87.8339C116.9 88.2789 116.646 88.9416 116.535 89.8277H123.06ZM140.759 78.1484V83.7471H144.377V87.8961H140.759V93.1139C140.759 93.7396 140.831 94.1555 140.969 94.3595C141.184 94.6724 141.567 94.8279 142.108 94.8279C142.595 94.8279 143.277 94.7093 144.156 94.4684L144.643 98.3764C143.011 98.6834 141.489 98.835 140.072 98.835C138.428 98.835 137.216 98.6542 136.436 98.2947C135.662 97.9352 135.085 97.3853 134.708 96.6526C134.338 95.9181 134.149 94.7249 134.149 93.0808V87.8961H131.727V83.7471H134.149V81.042L140.759 78.1484Z" fill="#038ED7"/>
</svg>
