<svg width="24" height="24" viewBox="0 0 24 24" fill="none" xmlns="http://www.w3.org/2000/svg">
<circle cx="12" cy="12" r="11" fill="white" stroke="white" stroke-width="2"/>
<path d="M9.71223 15.0246L7.20997 12.6124C7.14454 12.5486 7.06661 12.4979 6.98071 12.4633C6.8948 12.4287 6.80263 12.4109 6.70952 12.4109C6.61642 12.4109 6.52425 12.4287 6.43834 12.4633C6.35243 12.4979 6.27451 12.5486 6.20907 12.6124C6.14284 12.6755 6.09026 12.7506 6.05437 12.8335C6.01848 12.9163 6 13.0051 6 13.0949C6 13.1846 6.01848 13.2735 6.05437 13.3563C6.09026 13.4391 6.14284 13.5142 6.20907 13.5773L9.20463 16.4651C9.48345 16.7339 9.93385 16.7339 10.2127 16.4651L17.7909 9.16643C17.8572 9.10335 17.9097 9.02823 17.9456 8.94542C17.9815 8.8626 18 8.77374 18 8.68399C18 8.59424 17.9815 8.50538 17.9456 8.42257C17.9097 8.33975 17.8572 8.26463 17.7909 8.20155C17.7255 8.1377 17.6476 8.08701 17.5617 8.05241C17.4758 8.01782 17.3836 8 17.2905 8C17.1974 8 17.1052 8.01782 17.0193 8.05241C16.9334 8.08701 16.8555 8.1377 16.79 8.20155L9.71223 15.0246Z" fill="#038ED7"/>
</svg>
