<svg width="36" height="36" viewBox="0 0 36 36" fill="none" xmlns="http://www.w3.org/2000/svg">
<path d="M28.3125 6.75C30.4875 6.75 32.25 8.5125 32.25 10.6875V25.3125C32.25 27.4875 30.4875 29.25 28.3125 29.25H7.6875C6.64321 29.25 5.64169 28.8352 4.90327 28.0967C4.16484 27.3583 3.75 26.3568 3.75 25.3125V10.6875C3.75 8.5125 5.5125 6.75 7.6875 6.75H28.3125ZM30.375 13.7632L18.4515 20.3212C18.3288 20.3887 18.1926 20.4278 18.0528 20.4357C17.913 20.4437 17.7733 20.4202 17.6437 20.367L17.5485 20.322L5.625 13.7625V25.3125C5.625 25.8595 5.8423 26.3841 6.22909 26.7709C6.61589 27.1577 7.14049 27.375 7.6875 27.375H28.3125C28.8595 27.375 29.3841 27.1577 29.7709 26.7709C30.1577 26.3841 30.375 25.8595 30.375 25.3125V13.7632ZM28.3125 8.625H7.6875C7.14049 8.625 6.61589 8.8423 6.22909 9.22909C5.8423 9.61589 5.625 10.1405 5.625 10.6875V11.6242L18 18.4298L30.375 11.6235V10.6875C30.375 10.1405 30.1577 9.61589 29.7709 9.22909C29.3841 8.8423 28.8595 8.625 28.3125 8.625Z" fill="#3981C5"/>
</svg>
