<svg
    class="svg-icon"
    style="width: 1em; height: 1em;vertical-align: middle;fill: currentColor;overflow: hidden;" viewBox="0 0 1024 1024"
    version="1.1" xmlns="http://www.w3.org/2000/svg">
    <path
        d="M802.133333 481.28V290.133333C802.133333 129.706667 672.426667 0 512 0S221.866667 129.706667 221.866667 290.133333v191.146667c-37.546667 6.826667-68.266667 40.96-68.266667 81.92v375.466667C153.6 986.453333 191.146667 1024 238.933333 1024h546.133334c47.786667 0 85.333333-37.546667 85.333333-85.333333v-375.466667c0-40.96-30.72-75.093333-68.266667-81.92z m-443.733333-191.146667C358.4 204.8 426.666667 136.533333 512 136.533333s153.6 68.266667 153.6 153.6V477.866667h-307.2V290.133333z m238.933333 539.306667c3.413333 6.826667 0 10.24-3.413333 17.066667-3.413333 3.413333-6.826667 6.826667-13.653333 6.826666h-136.533334c-6.826667 0-10.24-3.413333-13.653333-6.826666-3.413333-3.413333-3.413333-10.24-3.413333-17.066667l34.133333-95.573333c-23.893333-17.066667-37.546667-40.96-37.546667-68.266667 0-47.786667 37.546667-85.333333 85.333334-85.333333s85.333333 37.546667 85.333333 85.333333c0 27.306667-13.653333 54.613333-37.546667 68.266667l40.96 95.573333z"
        fill="red"/>
</svg>
