<svg width="36" height="36" viewBox="0 0 36 36" fill="none" xmlns="http://www.w3.org/2000/svg">
<path d="M24 4C24.5304 4 25.0391 4.21071 25.4142 4.58579C25.7893 4.96086 26 5.46957 26 6V30C26 30.5304 25.7893 31.0391 25.4142 31.4142C25.0391 31.7893 24.5304 32 24 32H12C11.4696 32 10.9609 31.7893 10.5858 31.4142C10.2107 31.0391 10 30.5304 10 30V6C10 5.46957 10.2107 4.96086 10.5858 4.58579C10.9609 4.21071 11.4696 4 12 4H24ZM12 2C10.9391 2 9.92172 2.42143 9.17157 3.17157C8.42143 3.92172 8 4.93913 8 6V30C8 31.0609 8.42143 32.0783 9.17157 32.8284C9.92172 33.5786 10.9391 34 12 34H24C25.0609 34 26.0783 33.5786 26.8284 32.8284C27.5786 32.0783 28 31.0609 28 30V6C28 4.93913 27.5786 3.92172 26.8284 3.17157C26.0783 2.42143 25.0609 2 24 2H12Z" fill="#3981C5"/>
<path d="M18 30C18.5304 30 19.0391 29.7893 19.4142 29.4142C19.7893 29.0391 20 28.5304 20 28C20 27.4696 19.7893 26.9609 19.4142 26.5858C19.0391 26.2107 18.5304 26 18 26C17.4696 26 16.9609 26.2107 16.5858 26.5858C16.2107 26.9609 16 27.4696 16 28C16 28.5304 16.2107 29.0391 16.5858 29.4142C16.9609 29.7893 17.4696 30 18 30Z" fill="#3981C5"/>
</svg>
