<svg width="25" height="25" viewBox="0 0 25 25" fill="none" xmlns="http://www.w3.org/2000/svg">
<g clip-path="url(#clip0_305_127)">
<path d="M20.7448 13.5708C20.3406 13.0603 20.4562 12.8333 20.7448 12.377C20.75 12.3718 24.0865 7.76138 24.4302 6.19784L24.4323 6.19679C24.6031 5.627 24.4323 5.20825 23.6062 5.20825H20.8729C20.1771 5.20825 19.8562 5.56763 19.6844 5.96971C19.6844 5.96971 18.2927 9.30096 16.324 11.4603C15.6885 12.0843 15.3948 12.2843 15.0479 12.2843C14.8771 12.2843 14.6115 12.0843 14.6115 11.5145V6.19679C14.6115 5.51346 14.4167 5.20825 13.8406 5.20825H9.54271C9.10625 5.20825 8.84687 5.527 8.84687 5.82388C8.84687 6.47179 9.83125 6.62075 9.93333 8.44367V12.3989C9.93333 13.2655 9.77604 13.4249 9.42708 13.4249C8.49792 13.4249 6.24271 10.0801 4.90625 6.252C4.63646 5.50929 4.37292 5.20929 3.67188 5.20929H0.9375C0.157292 5.20929 0 5.56867 0 5.97075C0 6.68117 0.929166 10.2135 4.32083 14.8801C6.58125 18.0655 9.76458 19.7916 12.6604 19.7916C14.401 19.7916 14.6135 19.4083 14.6135 18.7489C14.6135 15.7051 14.4562 15.4176 15.3281 15.4176C15.7323 15.4176 16.4281 15.6176 18.0531 17.1541C19.9104 18.976 20.2156 19.7916 21.2552 19.7916H23.9885C24.7677 19.7916 25.1625 19.4083 24.9354 18.652C24.4156 17.0614 20.9031 13.7895 20.7448 13.5708Z" fill="#333333"/>
</g>
<defs>
<clipPath id="clip0_305_127">
<rect width="25" height="25" fill="white"/>
</clipPath>
</defs>
</svg>
