<svg width="25" height="25" viewBox="0 0 25 25" fill="none" xmlns="http://www.w3.org/2000/svg">
<g clip-path="url(#clip0_305_120)">
<path d="M4.91768 13.4176C4.27914 14.6728 5.00414 15.2728 6.65831 16.2978C8.06456 17.1666 10.0073 17.4843 11.2552 17.6113C10.7437 18.103 13.0875 15.8488 6.33748 22.3415C4.90623 23.7134 7.21039 25.9145 8.6406 24.5718L12.5125 20.8374C13.9948 22.2634 15.4156 23.6301 16.3843 24.577C17.8156 25.9249 20.1187 23.7426 18.7031 22.3468C18.5968 22.2457 13.4562 17.3145 13.7698 17.6166C15.0333 17.4895 16.9468 17.153 18.3364 16.303L18.3354 16.302C19.9896 15.2718 20.7146 14.6728 20.0854 13.4176C19.7052 12.7051 18.6802 12.1093 17.3156 13.1395C17.3156 13.1395 15.4729 14.5509 12.501 14.5509C9.5281 14.5509 7.68643 13.1395 7.68643 13.1395C6.32289 12.1041 5.29373 12.7051 4.91768 13.4176Z" fill="#333333"/>
<path d="M12.499 12.6479C16.122 12.6479 19.0803 9.81667 19.0803 6.33125C19.0803 2.83125 16.122 0 12.499 0C8.87508 0 5.91675 2.83125 5.91675 6.33125C5.91675 9.81667 8.87508 12.6479 12.499 12.6479ZM12.499 3.20729C14.2792 3.20729 15.7313 4.60417 15.7313 6.33125C15.7313 8.04375 14.2792 9.44063 12.499 9.44063C10.7188 9.44063 9.26675 8.04375 9.26675 6.33125C9.26571 4.60313 10.7178 3.20729 12.499 3.20729Z" fill="#333333"/>
</g>
<defs>
<clipPath id="clip0_305_120">
<rect width="25" height="25" fill="white"/>
</clipPath>
</defs>
</svg>
