<svg width="160" height="68" viewBox="0 0 160 68" fill="none" xmlns="http://www.w3.org/2000/svg">
<path fill-rule="evenodd" clip-rule="evenodd" d="M136.475 45.5536L136.482 43.1313C136.842 43.0427 137.291 42.7569 137.662 42.5073C138.283 41.9625 138.735 41.0732 138.918 39.7106C137.934 39.9054 137.112 40.0734 136.486 40.1785L136.49 37.4785C138.012 37.3921 139.023 37.2033 139.558 37.033C139.652 36.6781 139.652 36.3189 139.652 36.1426C139.652 35.7798 139.458 35.4987 139.206 35.3214C138.838 35.0588 138.384 34.9795 137.757 34.9772C137.305 34.9758 136.859 35.0552 136.493 35.2292L136.496 31.9983C136.95 31.9142 137.408 31.9166 137.848 31.9166C140.554 31.9225 142.357 32.2853 143.264 32.9015C144.252 33.6225 144.696 34.6107 144.695 35.8698C144.689 36.6877 144.424 38.125 143.961 40.0863C143.506 41.8713 143.333 43.2203 143.333 43.9552C143.33 44.569 143.41 45.1838 143.679 45.8407L138.554 45.8314C138.455 45.2887 138.371 44.7496 138.371 44.2224C137.74 44.7472 137.201 45.1756 136.475 45.5536ZM159.209 32.3812L157.208 36.4238C156.851 36.2534 156.493 36.2534 156.134 36.2534C155.133 36.2525 154.319 36.5977 153.704 37.3141C153.083 38.0318 152.611 39.2204 152.255 40.7209L151.17 45.8546L145.932 45.8443L148.851 32.2972L153.805 32.3065L153.148 34.8931V35.004C153.99 33.8384 154.7 33.0086 155.34 32.5572C155.962 32.2027 156.589 31.9507 157.398 31.9529C157.94 31.9529 158.48 32.1279 159.209 32.3812ZM136.496 31.9983L136.493 35.2291H136.311C135.955 35.4917 135.587 35.8533 135.321 36.4717L130.451 35.9373C130.812 34.6725 131.55 33.6913 132.607 32.9703C133.523 32.4441 134.874 32.0872 136.496 31.9983ZM136.49 37.4785L136.486 40.1785C135.58 40.4316 134.95 40.6079 134.673 40.799C134.318 41.0653 134.061 41.4142 134.059 41.8564C134.059 42.3148 134.227 42.672 134.5 42.8492C134.856 43.128 135.214 43.297 135.674 43.297C135.94 43.2983 136.217 43.2097 136.482 43.1313L136.475 45.5536C135.672 45.9131 134.776 46.0811 133.763 46.0811C132.06 46.0765 130.894 45.7077 130.082 44.906C129.362 44.0974 128.991 43.1955 128.991 42.1352C128.993 40.8681 129.284 39.986 129.998 39.3418C130.622 38.7237 131.455 38.2686 132.422 38.1039C133.418 37.8228 134.79 37.6442 136.49 37.4785ZM64.4954 45.9631L64.5013 42.918C65.313 42.7302 65.8421 42.3835 66.3961 41.7396L71.3378 42.2072C70.6271 43.5444 69.62 44.5386 68.3529 45.0578C67.3704 45.5992 66.0236 45.878 64.4954 45.9631ZM64.507 40.2331L64.5107 37.7037L67.0192 37.7096C67.1184 37.5287 67.1197 37.2708 67.1197 36.908C67.1208 36.27 66.9299 35.7365 66.4934 35.3727C66.1163 35.0168 65.5832 34.8544 64.9558 34.8544L64.5166 34.8521L64.5213 31.7932L65.1347 31.7942C67.6748 31.7988 69.4676 32.3343 70.5298 33.4978C71.6352 34.5733 72.2546 35.9244 72.2523 37.538C72.2523 38.0665 72.0804 38.9757 71.8812 40.246L64.507 40.2331ZM98.8395 32.2119L91.0613 45.7507L86.3842 45.7438L85.5855 37.6653H85.4966L80.9659 45.7332L76.2864 45.7262L74.2443 32.1699L78.9247 32.1791L79.4448 40.7034L84.2342 32.1874L88.9266 32.1957L89.7276 40.6138L93.4457 32.205L98.8395 32.2119ZM116.769 32.2423L111.355 32.4824C111.261 30.8761 110.383 30.0605 108.663 30.0582C107.948 30.0569 107.403 30.2424 107.032 30.4981C106.677 30.7885 106.494 31.1512 106.494 31.5796C106.493 31.863 106.58 32.1173 106.955 32.3984C107.223 32.6505 107.943 33.0146 109.018 33.4627C110.454 34.0144 111.631 34.4649 112.519 35.0155C113.427 35.453 114.151 36.0997 114.686 36.8977C115.216 37.7166 115.497 38.6092 115.495 39.7886C115.492 40.8447 115.209 41.9238 114.573 42.8118C113.957 43.8186 113.144 44.5187 111.982 45.1303C110.799 45.7848 109.181 46.0368 107.003 46.0345C104.047 46.0295 101.959 45.4964 100.71 44.3249C99.4426 43.1478 98.8265 41.7128 98.8278 39.9345L98.8288 39.4572L104.32 39.1378C104.32 40.3022 104.601 41.1142 105.13 41.6519C105.586 42.0942 106.294 42.3333 107.207 42.3359C108.199 42.3369 108.826 42.1772 109.368 41.7313C109.807 41.3732 110.086 40.9227 110.086 40.3885C110.086 40.0268 109.911 39.6593 109.646 39.3068C109.29 38.9499 108.573 38.5986 107.388 38.125C104.608 37.1438 102.878 36.2558 102.069 35.4346C101.365 34.6213 100.989 33.64 100.992 32.3882C100.992 31.3064 101.37 30.4243 101.9 29.5108C102.545 28.6159 103.449 27.8903 104.522 27.4597C105.694 26.9033 107.039 26.7248 108.668 26.7271C113.789 26.7377 116.506 28.5563 116.769 32.2423ZM128.483 32.2622L127.662 35.9326L124.962 35.9267L123.959 40.6707C123.872 40.9448 123.872 41.1456 123.872 41.3976C123.872 42.0161 124.232 42.2985 125.033 42.2995C125.307 42.2995 125.853 42.2049 126.668 42.0207L125.848 45.8102C124.316 45.9772 123.138 46.0622 122.418 46.0599C120.973 46.0589 119.898 45.6902 119.358 45.0648C118.736 44.3544 118.363 43.5563 118.364 42.7242C118.364 42.4722 118.532 41.7465 118.835 40.5797L119.733 35.9187L117.931 35.9151L118.663 32.2456L120.556 32.2493L120.997 30.079L126.867 27.2251L125.773 32.2576L128.483 32.2622ZM55.9634 26.9288L51.8672 45.6819L46.4615 45.675L41.7973 34.703L39.4412 45.6621L33.9481 45.6515L38.0347 26.8974L43.4405 26.908L48.1139 37.8532L50.5544 26.9182L55.9634 26.9288ZM64.5213 31.7932L64.5166 34.8521C64.0539 34.9328 63.6161 35.1941 63.24 35.55C62.6979 36.0097 62.2624 36.7145 61.9872 37.7014L64.5107 37.7037L64.507 40.2331L61.5351 40.2298C61.6065 42.0171 62.425 42.9157 63.9474 42.918H64.5013L64.4954 45.9631L63.7565 45.9607C61.0797 45.9551 59.172 45.3376 58.0898 44.1652C56.9237 42.995 56.3896 41.4585 56.3943 39.7664C56.3956 38.51 56.6578 37.4216 57.2188 36.3398C57.7562 35.2619 58.377 34.3726 59.3781 33.6774C60.2704 32.9329 61.1006 32.3975 61.9951 32.2156C62.7049 31.9635 63.6207 31.8759 64.5213 31.7932Z" fill="#333333"/>
<path fill-rule="evenodd" clip-rule="evenodd" d="M136.475 45.5536L136.482 43.1313C136.842 43.0427 137.291 42.7569 137.662 42.5073C138.283 41.9625 138.735 41.0732 138.918 39.7106C137.934 39.9054 137.112 40.0734 136.486 40.1785L136.49 37.4785C138.012 37.3921 139.023 37.2033 139.558 37.033C139.652 36.6781 139.652 36.3189 139.652 36.1426C139.652 35.7798 139.458 35.4987 139.206 35.3214C138.838 35.0588 138.384 34.9795 137.757 34.9772C137.305 34.9758 136.859 35.0552 136.493 35.2292L136.496 31.9983C136.95 31.9142 137.408 31.9166 137.848 31.9166C140.554 31.9225 142.357 32.2853 143.264 32.9015C144.252 33.6225 144.696 34.6107 144.695 35.8698C144.689 36.6877 144.424 38.125 143.961 40.0863C143.506 41.8713 143.333 43.2203 143.333 43.9552C143.33 44.569 143.41 45.1838 143.679 45.8407L138.554 45.8314C138.455 45.2887 138.371 44.7496 138.371 44.2224C137.74 44.7472 137.201 45.1756 136.475 45.5536ZM159.209 32.3812L157.208 36.4238C156.851 36.2534 156.493 36.2534 156.134 36.2534C155.133 36.2525 154.319 36.5977 153.704 37.3141C153.083 38.0318 152.611 39.2204 152.255 40.7209L151.17 45.8546L145.932 45.8443L148.851 32.2972L153.805 32.3065L153.148 34.8931V35.004C153.99 33.8384 154.7 33.0086 155.34 32.5572C155.962 32.2027 156.589 31.9507 157.398 31.9529C157.94 31.9529 158.48 32.1279 159.209 32.3812ZM136.496 31.9983L136.493 35.2291H136.311C135.955 35.4917 135.587 35.8533 135.321 36.4717L130.451 35.9373C130.812 34.6725 131.55 33.6913 132.607 32.9703C133.523 32.4441 134.874 32.0872 136.496 31.9983ZM136.49 37.4785L136.486 40.1785C135.58 40.4316 134.95 40.6079 134.673 40.799C134.318 41.0653 134.061 41.4142 134.059 41.8564C134.059 42.3148 134.227 42.672 134.5 42.8492C134.856 43.128 135.214 43.297 135.674 43.297C135.94 43.2983 136.217 43.2097 136.482 43.1313L136.475 45.5536C135.672 45.9131 134.776 46.0811 133.763 46.0811C132.06 46.0765 130.894 45.7077 130.082 44.906C129.362 44.0974 128.991 43.1955 128.991 42.1352C128.993 40.8681 129.284 39.986 129.998 39.3418C130.622 38.7237 131.455 38.2686 132.422 38.1039C133.418 37.8228 134.79 37.6442 136.49 37.4785ZM64.4954 45.9631L64.5013 42.918C65.313 42.7302 65.8421 42.3835 66.3961 41.7396L71.3378 42.2072C70.6271 43.5444 69.62 44.5386 68.3529 45.0578C67.3704 45.5992 66.0236 45.878 64.4954 45.9631ZM64.507 40.2331L64.5107 37.7037L67.0192 37.7096C67.1184 37.5287 67.1197 37.2708 67.1197 36.908C67.1208 36.27 66.9299 35.7365 66.4934 35.3727C66.1163 35.0168 65.5832 34.8544 64.9558 34.8544L64.5166 34.8521L64.5213 31.7932L65.1347 31.7942C67.6748 31.7988 69.4676 32.3343 70.5298 33.4978C71.6352 34.5733 72.2546 35.9244 72.2523 37.538C72.2523 38.0665 72.0804 38.9757 71.8812 40.246L64.507 40.2331ZM98.8395 32.2119L91.0613 45.7507L86.3842 45.7438L85.5855 37.6653H85.4966L80.9659 45.7332L76.2864 45.7262L74.2443 32.1699L78.9247 32.1791L79.4448 40.7034L84.2342 32.1874L88.9266 32.1957L89.7276 40.6138L93.4457 32.205L98.8395 32.2119ZM116.769 32.2423L111.355 32.4824C111.261 30.8761 110.383 30.0605 108.663 30.0582C107.948 30.0569 107.403 30.2424 107.032 30.4981C106.677 30.7885 106.494 31.1512 106.494 31.5796C106.493 31.863 106.58 32.1173 106.955 32.3984C107.223 32.6505 107.943 33.0146 109.018 33.4627C110.454 34.0144 111.631 34.4649 112.519 35.0155C113.427 35.453 114.151 36.0997 114.686 36.8977C115.216 37.7166 115.497 38.6092 115.495 39.7886C115.492 40.8447 115.209 41.9238 114.573 42.8118C113.957 43.8186 113.144 44.5187 111.982 45.1303C110.799 45.7848 109.181 46.0368 107.003 46.0345C104.047 46.0295 101.959 45.4964 100.71 44.3249C99.4426 43.1478 98.8265 41.7128 98.8278 39.9345L98.8288 39.4572L104.32 39.1378C104.32 40.3022 104.601 41.1142 105.13 41.6519C105.586 42.0942 106.294 42.3333 107.207 42.3359C108.199 42.3369 108.826 42.1772 109.368 41.7313C109.807 41.3732 110.086 40.9227 110.086 40.3885C110.086 40.0268 109.911 39.6593 109.646 39.3068C109.29 38.9499 108.573 38.5986 107.388 38.125C104.608 37.1438 102.878 36.2558 102.069 35.4346C101.365 34.6213 100.989 33.64 100.992 32.3882C100.992 31.3064 101.37 30.4243 101.9 29.5108C102.545 28.6159 103.449 27.8903 104.522 27.4597C105.694 26.9033 107.039 26.7248 108.668 26.7271C113.789 26.7377 116.506 28.5563 116.769 32.2423ZM128.483 32.2622L127.662 35.9326L124.962 35.9267L123.959 40.6707C123.872 40.9448 123.872 41.1456 123.872 41.3976C123.872 42.0161 124.232 42.2985 125.033 42.2995C125.307 42.2995 125.853 42.2049 126.668 42.0207L125.848 45.8102C124.316 45.9772 123.138 46.0622 122.418 46.0599C120.973 46.0589 119.898 45.6902 119.358 45.0648C118.736 44.3544 118.363 43.5563 118.364 42.7242C118.364 42.4722 118.532 41.7465 118.835 40.5797L119.733 35.9187L117.931 35.9151L118.663 32.2456L120.556 32.2493L120.997 30.079L126.867 27.2251L125.773 32.2576L128.483 32.2622ZM55.9634 26.9288L51.8672 45.6819L46.4615 45.675L41.7973 34.703L39.4412 45.6621L33.9481 45.6515L38.0347 26.8974L43.4405 26.908L48.1139 37.8532L50.5544 26.9182L55.9634 26.9288ZM64.5213 31.7932L64.5166 34.8521C64.0539 34.9328 63.6161 35.1941 63.24 35.55C62.6979 36.0097 62.2624 36.7145 61.9872 37.7014L64.5107 37.7037L64.507 40.2331L61.5351 40.2298C61.6065 42.0171 62.425 42.9157 63.9474 42.918H64.5013L64.4954 45.9631L63.7565 45.9607C61.0797 45.9551 59.172 45.3376 58.0898 44.1652C56.9237 42.995 56.3896 41.4585 56.3943 39.7664C56.3956 38.51 56.6578 37.4216 57.2188 36.3398C57.7562 35.2619 58.377 34.3726 59.3781 33.6774C60.2704 32.9329 61.1006 32.3975 61.9951 32.2156C62.7049 31.9635 63.6207 31.8759 64.5213 31.7932Z" fill="#333333"/>
<path fill-rule="evenodd" clip-rule="evenodd" d="M36.5488 12.9026C15.0975 18.0853 0.80818 27.2454 0.790666 37.7183C0.762565 53.9162 35.4707 67.2056 78.0264 67.2779C108.988 67.332 135.852 60.355 148.157 50.2845L146.905 50.2808C141.061 54.6935 132.516 58.283 121.838 60.781C111.339 63.0948 98.6798 64.5205 84.3975 64.4946C62.9401 64.4595 45.4542 61.4691 33.2484 56.3975C20.7066 51.2417 13.6976 43.84 13.7137 35.2008C13.7276 25.9203 22.0039 18.0983 36.5488 12.9026Z" fill="#333333"/>
<path fill-rule="evenodd" clip-rule="evenodd" d="M36.5488 12.9026C15.0975 18.0853 0.80818 27.2454 0.790666 37.7183C0.762565 53.9162 35.4707 67.2056 78.0264 67.2779C108.988 67.332 135.852 60.355 148.157 50.2845L146.905 50.2808C141.061 54.6935 132.516 58.283 121.838 60.781C111.339 63.0948 98.6798 64.5205 84.3975 64.4946C62.9401 64.4595 45.4542 61.4691 33.2484 56.3975C20.7066 51.2417 13.6976 43.84 13.7137 35.2008C13.7276 25.9203 22.0039 18.0983 36.5488 12.9026Z" fill="#333333"/>
<path fill-rule="evenodd" clip-rule="evenodd" d="M47.3906 0L45.6775 7.17366L38.8103 3.9399L43.5781 9.87888C43.5781 9.87888 43.7229 9.87888 43.7229 9.76708L36.7112 13.0713L44.3028 13.0843V12.9609L42.5725 20.258L47.2424 14.5665L47.4803 14.5676L51.9997 20.2757L50.4351 13.2315L50.5634 13.096L57.8951 13.108L51.3067 9.89192L51.177 9.78109L55.8284 3.9696L49.2086 7.17965C49.0964 7.17835 49.0964 7.17835 48.9777 7.04419L47.3906 0Z" fill="#333333"/>
</svg>
