<svg width="154" height="64" viewBox="0 0 154 64" fill="none" xmlns="http://www.w3.org/2000/svg">
    <path fill-rule="evenodd" clip-rule="evenodd"
          d="M131.357 42.8739L131.364 40.5941C131.71 40.5107 132.143 40.2418 132.5 40.0068C133.098 39.4941 133.533 38.6571 133.708 37.3746C132.762 37.5579 131.97 37.7161 131.367 37.815L131.372 35.2738C132.836 35.1925 133.81 35.0148 134.325 34.8545C134.415 34.5205 134.415 34.1825 134.415 34.0165C134.415 33.6751 134.228 33.4105 133.986 33.2436C133.632 32.9965 133.194 32.9218 132.591 32.9196C132.156 32.9184 131.727 32.9931 131.374 33.1568L131.378 30.116C131.815 30.0369 132.256 30.0391 132.678 30.0391C135.283 30.0447 137.019 30.3861 137.891 30.9661C138.842 31.6446 139.27 32.5747 139.269 33.7598C139.263 34.5296 139.008 35.8823 138.563 37.7282C138.124 39.4082 137.958 40.6779 137.958 41.3695C137.956 41.9473 138.032 42.5259 138.291 43.1441L133.358 43.1354C133.263 42.6246 133.182 42.1172 133.182 41.621C132.575 42.115 132.056 42.5181 131.357 42.8739ZM153.239 30.4764L151.313 34.2811C150.969 34.1208 150.624 34.1208 150.279 34.1208C149.316 34.1199 148.532 34.4449 147.94 35.1191C147.342 35.7946 146.888 36.9133 146.545 38.3255L145.501 43.1572L140.46 43.1475L143.269 30.3974L148.038 30.4061L147.405 32.8406V32.9449C148.216 31.8479 148.899 31.0669 149.515 30.642C150.114 30.3083 150.717 30.0712 151.495 30.0733C152.017 30.0733 152.537 30.238 153.239 30.4764ZM131.378 30.116L131.374 33.1568H131.199C130.857 33.4039 130.503 33.7442 130.246 34.3263L125.559 33.8233C125.907 32.6329 126.617 31.7094 127.634 31.0308C128.516 30.5355 129.817 30.1997 131.378 30.116ZM131.372 35.2738L131.367 37.8151C130.496 38.0532 129.89 38.2191 129.623 38.399C129.281 38.6496 129.034 38.978 129.032 39.3942C129.032 39.8256 129.193 40.1618 129.456 40.3286C129.798 40.591 130.143 40.7501 130.586 40.7501C130.842 40.7513 131.109 40.6679 131.364 40.5941L131.357 42.8739C130.584 43.2123 129.722 43.3704 128.747 43.3704C127.108 43.3661 125.986 43.019 125.204 42.2644C124.511 41.5034 124.154 40.6545 124.154 39.6566C124.156 38.4641 124.436 37.6339 125.123 37.0275C125.724 36.4457 126.525 36.0174 127.456 35.8624C128.414 35.5979 129.735 35.4298 131.372 35.2738ZM62.0768 43.2593L62.0825 40.3934C62.8637 40.2166 63.373 39.8903 63.9062 39.2843L68.6626 39.7244C67.9785 40.9829 67.0092 41.9186 65.7897 42.4073C64.844 42.9169 63.5477 43.1793 62.0768 43.2593ZM62.088 37.8664L62.0915 35.4858L64.506 35.4914C64.6015 35.3211 64.6027 35.0783 64.6027 34.7369C64.6037 34.1364 64.42 33.6343 63.9998 33.2919C63.6369 32.957 63.1238 32.8041 62.52 32.8041L62.0972 32.802L62.1017 29.923L62.6921 29.9239C65.1369 29.9282 66.8626 30.4322 67.885 31.5273C68.9489 32.5395 69.5451 33.8111 69.5428 35.3299C69.5428 35.8273 69.3773 36.683 69.1856 37.8786L62.088 37.8664ZM95.133 30.317L87.6465 43.0595L83.1448 43.0529L82.376 35.4497H82.2904L77.9296 43.0429L73.4257 43.0364L71.4601 30.2775L75.965 30.2862L76.4656 38.3091L81.0754 30.294L85.5918 30.3018L86.3628 38.2247L89.9414 30.3105L95.133 30.317ZM112.39 30.3457L107.18 30.5717C107.089 29.0598 106.244 28.2922 104.588 28.29C103.9 28.2888 103.375 28.4634 103.018 28.704C102.677 28.9773 102.501 29.3188 102.501 29.7219C102.5 29.9886 102.583 30.228 102.944 30.4926C103.202 30.7298 103.895 31.0725 104.93 31.4943C106.312 32.0135 107.444 32.4375 108.3 32.9558C109.173 33.3675 109.87 33.9761 110.385 34.7272C110.896 35.4979 111.166 36.338 111.164 37.448C111.161 38.442 110.889 39.4577 110.277 40.2935C109.684 41.241 108.901 41.9 107.782 42.4755C106.644 43.0915 105.087 43.3287 102.99 43.3265C100.145 43.3218 98.1356 42.8201 96.933 41.7175C95.7135 40.6097 95.1205 39.2591 95.1218 37.5853L95.1227 37.1362L100.408 36.8355C100.408 37.9314 100.678 38.6957 101.188 39.2018C101.626 39.618 102.308 39.843 103.187 39.8455C104.142 39.8465 104.745 39.6961 105.267 39.2765C105.689 38.9394 105.958 38.5154 105.958 38.0127C105.958 37.6722 105.79 37.3263 105.534 36.9945C105.191 36.6587 104.502 36.3281 103.361 35.8823C100.685 34.9588 99.0202 34.123 98.2414 33.3501C97.564 32.5847 97.2023 31.6611 97.2046 30.4829C97.2046 29.4648 97.5685 28.6346 98.079 27.7749C98.6992 26.9326 99.5692 26.2496 100.603 25.8443C101.731 25.3208 103.025 25.1527 104.593 25.1549C109.522 25.1648 112.137 26.8765 112.39 30.3457ZM123.665 30.3643L122.875 33.8189L120.275 33.8133L119.311 38.2782C119.227 38.5363 119.227 38.7252 119.227 38.9624C119.227 39.5445 119.573 39.8103 120.344 39.8113C120.608 39.8113 121.133 39.7222 121.918 39.5489L121.129 43.1155C119.654 43.2727 118.52 43.3526 117.827 43.3505C116.436 43.3495 115.402 43.0025 114.882 42.4138C114.284 41.7452 113.924 40.9941 113.925 40.2109C113.925 39.9738 114.087 39.2908 114.379 38.1927L115.243 33.8058L113.508 33.8024L114.213 30.3488L116.035 30.3522L116.46 28.3096L122.109 25.6236L121.057 30.36L123.665 30.3643ZM53.8648 25.3456L49.9221 42.9956L44.7191 42.9891L40.2299 32.6625L37.9621 42.9769L32.675 42.9669L36.6084 25.316L41.8114 25.326L46.3096 35.6274L48.6586 25.3356L53.8648 25.3456ZM62.1017 29.923L62.0972 32.802C61.6519 32.8779 61.2305 33.1238 60.8684 33.4587C60.3467 33.8915 59.9275 34.5548 59.6627 35.4836L62.0915 35.4858L62.088 37.8664L59.2275 37.8633C59.2962 39.5454 60.0841 40.3912 61.5493 40.3934H62.0825L62.0768 43.2593L61.3656 43.2571C58.7892 43.2518 56.953 42.6707 55.9114 41.5672C54.7891 40.4659 54.275 39.0197 54.2795 37.4272C54.2807 36.2447 54.5331 35.2203 55.0731 34.2021C55.5904 33.1876 56.1878 32.3506 57.1514 31.6963C58.0102 30.9956 58.8093 30.4917 59.6703 30.3205C60.3534 30.0833 61.2349 30.0008 62.1017 29.923Z"
          fill="#038ED7"/>
    <path fill-rule="evenodd" clip-rule="evenodd"
          d="M131.357 42.8739L131.364 40.5941C131.71 40.5107 132.143 40.2418 132.5 40.0068C133.098 39.4941 133.533 38.6571 133.708 37.3746C132.762 37.5579 131.97 37.7161 131.367 37.815L131.372 35.2738C132.836 35.1925 133.81 35.0148 134.325 34.8545C134.415 34.5205 134.415 34.1825 134.415 34.0165C134.415 33.6751 134.228 33.4105 133.986 33.2436C133.632 32.9965 133.194 32.9218 132.591 32.9196C132.156 32.9184 131.727 32.9931 131.374 33.1568L131.378 30.116C131.815 30.0369 132.256 30.0391 132.678 30.0391C135.283 30.0447 137.019 30.3861 137.891 30.9661C138.842 31.6446 139.27 32.5747 139.269 33.7598C139.263 34.5296 139.008 35.8823 138.563 37.7282C138.124 39.4082 137.958 40.6779 137.958 41.3695C137.956 41.9473 138.032 42.5259 138.291 43.1441L133.358 43.1354C133.263 42.6246 133.182 42.1172 133.182 41.621C132.575 42.115 132.056 42.5181 131.357 42.8739ZM153.239 30.4764L151.313 34.2811C150.969 34.1208 150.624 34.1208 150.279 34.1208C149.316 34.1199 148.532 34.4449 147.94 35.1191C147.342 35.7946 146.888 36.9133 146.545 38.3255L145.501 43.1572L140.46 43.1475L143.269 30.3974L148.038 30.4061L147.405 32.8406V32.9449C148.216 31.8479 148.899 31.0669 149.515 30.642C150.114 30.3083 150.717 30.0712 151.495 30.0733C152.017 30.0733 152.537 30.238 153.239 30.4764ZM131.378 30.116L131.374 33.1568H131.199C130.857 33.4039 130.503 33.7442 130.246 34.3263L125.559 33.8233C125.907 32.6329 126.617 31.7094 127.634 31.0308C128.516 30.5355 129.817 30.1997 131.378 30.116ZM131.372 35.2738L131.367 37.8151C130.496 38.0532 129.89 38.2191 129.623 38.399C129.281 38.6496 129.034 38.978 129.032 39.3942C129.032 39.8256 129.193 40.1618 129.456 40.3286C129.798 40.591 130.143 40.7501 130.586 40.7501C130.842 40.7513 131.109 40.6679 131.364 40.5941L131.357 42.8739C130.584 43.2123 129.722 43.3704 128.747 43.3704C127.108 43.3661 125.986 43.019 125.204 42.2644C124.511 41.5034 124.154 40.6545 124.154 39.6566C124.156 38.4641 124.436 37.6339 125.123 37.0275C125.724 36.4457 126.525 36.0174 127.456 35.8624C128.414 35.5979 129.735 35.4298 131.372 35.2738ZM62.0768 43.2593L62.0825 40.3934C62.8637 40.2166 63.373 39.8903 63.9062 39.2843L68.6626 39.7244C67.9785 40.9829 67.0092 41.9186 65.7897 42.4073C64.844 42.9169 63.5477 43.1793 62.0768 43.2593ZM62.088 37.8664L62.0915 35.4858L64.506 35.4914C64.6015 35.3211 64.6027 35.0783 64.6027 34.7369C64.6037 34.1364 64.42 33.6343 63.9998 33.2919C63.6369 32.957 63.1238 32.8041 62.52 32.8041L62.0972 32.802L62.1017 29.923L62.6921 29.9239C65.1369 29.9282 66.8626 30.4322 67.885 31.5273C68.9489 32.5395 69.5451 33.8111 69.5428 35.3299C69.5428 35.8273 69.3773 36.683 69.1856 37.8786L62.088 37.8664ZM95.133 30.317L87.6465 43.0595L83.1448 43.0529L82.376 35.4497H82.2904L77.9296 43.0429L73.4257 43.0364L71.4601 30.2775L75.965 30.2862L76.4656 38.3091L81.0754 30.294L85.5918 30.3018L86.3628 38.2247L89.9414 30.3105L95.133 30.317ZM112.39 30.3457L107.18 30.5717C107.089 29.0598 106.244 28.2922 104.588 28.29C103.9 28.2888 103.375 28.4634 103.018 28.704C102.677 28.9773 102.501 29.3188 102.501 29.7219C102.5 29.9886 102.583 30.228 102.944 30.4926C103.202 30.7298 103.895 31.0725 104.93 31.4943C106.312 32.0135 107.444 32.4375 108.3 32.9558C109.173 33.3675 109.87 33.9761 110.385 34.7272C110.896 35.4979 111.166 36.338 111.164 37.448C111.161 38.442 110.889 39.4577 110.277 40.2935C109.684 41.241 108.901 41.9 107.782 42.4755C106.644 43.0915 105.087 43.3287 102.99 43.3265C100.145 43.3218 98.1356 42.8201 96.933 41.7175C95.7135 40.6097 95.1205 39.2591 95.1218 37.5853L95.1227 37.1362L100.408 36.8355C100.408 37.9314 100.678 38.6957 101.188 39.2018C101.626 39.618 102.308 39.843 103.187 39.8455C104.142 39.8465 104.745 39.6961 105.267 39.2765C105.689 38.9394 105.958 38.5154 105.958 38.0127C105.958 37.6722 105.79 37.3263 105.534 36.9945C105.191 36.6587 104.502 36.3281 103.361 35.8823C100.685 34.9588 99.0202 34.123 98.2414 33.3501C97.564 32.5847 97.2023 31.6611 97.2046 30.4829C97.2046 29.4648 97.5685 28.6346 98.079 27.7749C98.6992 26.9326 99.5692 26.2496 100.603 25.8443C101.731 25.3208 103.025 25.1527 104.593 25.1549C109.522 25.1648 112.137 26.8765 112.39 30.3457ZM123.665 30.3643L122.875 33.8189L120.275 33.8133L119.311 38.2782C119.227 38.5363 119.227 38.7252 119.227 38.9624C119.227 39.5445 119.573 39.8103 120.344 39.8113C120.608 39.8113 121.133 39.7222 121.918 39.5489L121.129 43.1155C119.654 43.2727 118.52 43.3526 117.827 43.3505C116.436 43.3495 115.402 43.0025 114.882 42.4138C114.284 41.7452 113.924 40.9941 113.925 40.2109C113.925 39.9738 114.087 39.2908 114.379 38.1927L115.243 33.8058L113.508 33.8024L114.213 30.3488L116.035 30.3522L116.46 28.3096L122.109 25.6236L121.057 30.36L123.665 30.3643ZM53.8648 25.3456L49.9221 42.9956L44.7191 42.9891L40.2299 32.6625L37.9621 42.9769L32.675 42.9669L36.6084 25.316L41.8114 25.326L46.3096 35.6274L48.6586 25.3356L53.8648 25.3456ZM62.1017 29.923L62.0972 32.802C61.6519 32.8779 61.2305 33.1238 60.8684 33.4587C60.3467 33.8915 59.9275 34.5548 59.6627 35.4836L62.0915 35.4858L62.088 37.8664L59.2275 37.8633C59.2962 39.5454 60.0841 40.3912 61.5493 40.3934H62.0825L62.0768 43.2593L61.3656 43.2571C58.7892 43.2518 56.953 42.6707 55.9114 41.5672C54.7891 40.4659 54.275 39.0197 54.2795 37.4272C54.2807 36.2447 54.5331 35.2203 55.0731 34.2021C55.5904 33.1876 56.1878 32.3506 57.1514 31.6963C58.0102 30.9956 58.8093 30.4917 59.6703 30.3205C60.3534 30.0833 61.2349 30.0008 62.1017 29.923Z"
          fill="#038ED7"/>
    <path fill-rule="evenodd" clip-rule="evenodd"
          d="M35.1784 12.1437C14.5314 17.0215 0.777981 25.6428 0.761125 35.4997C0.734077 50.7447 34.1407 63.2524 75.1005 63.3205C104.901 63.3714 130.758 56.8048 142.601 47.3267L141.396 47.3232C135.772 51.4763 127.546 54.8547 117.269 57.2058C107.164 59.3835 94.9794 60.7253 81.2327 60.7009C60.58 60.6678 43.7498 57.8534 32.0017 53.0801C19.9302 48.2275 13.184 41.2613 13.1996 33.1303C13.213 24.3956 21.1789 17.0337 35.1784 12.1437Z"
          fill="#038ED7"/>
    <path fill-rule="evenodd" clip-rule="evenodd"
          d="M35.1784 12.1437C14.5314 17.0215 0.777981 25.6428 0.761125 35.4997C0.734077 50.7447 34.1407 63.2524 75.1005 63.3205C104.901 63.3714 130.758 56.8048 142.601 47.3267L141.396 47.3232C135.772 51.4763 127.546 54.8547 117.269 57.2058C107.164 59.3835 94.9794 60.7253 81.2327 60.7009C60.58 60.6678 43.7498 57.8534 32.0017 53.0801C19.9302 48.2275 13.184 41.2613 13.1996 33.1303C13.213 24.3956 21.1789 17.0337 35.1784 12.1437Z"
          fill="#038ED7"/>
    <path fill-rule="evenodd" clip-rule="evenodd"
          d="M45.6134 0L43.9646 6.75168L37.3548 3.70814L41.9439 9.29777C41.9439 9.29777 42.0833 9.29777 42.0833 9.19255L35.3345 12.3024L42.6414 12.3146V12.1985L40.976 19.0663L45.4708 13.7097L45.6997 13.7107L50.0496 19.083L48.5437 12.4532L48.6673 12.3256L55.724 12.3369L49.3826 9.31004L49.2578 9.20574L53.7348 3.73609L47.3632 6.75732C47.2553 6.75609 47.2553 6.75609 47.141 6.62982L45.6134 0Z"
          fill="#038ED7"/>
</svg>
